<svg width="88" height="53" viewBox="0 0 88 53" fill="none" xmlns="http://www.w3.org/2000/svg">
<g clip-path="url(#clip0_1_310)">
<path d="M14.1822 5.93317C9.61866 5.93317 5.90513 9.66251 5.90513 14.248V28.0734C5.90513 32.6578 9.61866 36.3882 14.1822 36.3882H34.7645C38.7776 36.3882 42.6204 38.1066 45.3052 41.103L49.2152 45.4666V14.248C49.2152 9.66307 45.5017 5.93317 40.9381 5.93317H14.1822ZM50.1884 53C48.8251 53 47.5057 52.4265 46.5475 51.3597L40.9154 45.0731C39.348 43.3247 37.1064 42.3214 34.7639 42.3214H14.1822C6.36232 42.3214 0 35.9301 0 28.0734V14.248C0 6.39132 6.36232 0 14.1822 0H40.9381C48.758 0 55.1203 6.39132 55.1203 14.248V48.0539C55.1203 50.1179 53.8825 51.9282 51.9639 52.6672C51.3813 52.8908 50.7804 52.9994 50.1884 52.9994V53Z" fill="#CFD3D7"/>
<path d="M21.4178 20.5668C21.4178 21.4687 20.6904 22.1982 19.7938 22.1982C18.8972 22.1982 18.1698 21.4687 18.1698 20.5668C18.1698 19.665 18.8961 18.9354 19.7938 18.9354C20.6916 18.9354 21.4178 19.665 21.4178 20.5668Z" fill="#CFD3D7"/>
<path d="M29.1839 20.5668C29.1839 21.4687 28.4565 22.1982 27.5599 22.1982C26.6633 22.1982 25.9348 21.4687 25.9348 20.5668C25.9348 19.665 26.6622 18.9354 27.5599 18.9354C28.4576 18.9354 29.1839 19.665 29.1839 20.5668Z" fill="#CFD3D7"/>
<path d="M36.9511 20.5668C36.9511 21.4687 36.2226 22.1982 35.3259 22.1982C34.4293 22.1982 33.7019 21.4687 33.7019 20.5668C33.7019 19.665 34.4293 18.9354 35.3259 18.9354C36.2226 18.9354 36.9511 19.665 36.9511 20.5668Z" fill="#CFD3D7"/>
<path d="M59.67 21.5562C57.1616 21.5562 55.1203 23.6067 55.1203 26.1266V44.4165L56.0236 43.4094C58.0055 41.1978 60.8368 39.9309 63.7947 39.9309H77.5452C80.0542 39.9309 82.0949 37.8814 82.0949 35.3632V26.1266C82.0949 23.6061 80.0536 21.5562 77.5452 21.5562H59.67ZM53.4935 52.9994C52.9781 52.9994 52.4571 52.9064 51.9511 52.7102C50.2882 52.0692 49.2146 50.4996 49.2146 48.7099V26.1266C49.2146 20.335 53.9047 15.6241 59.6694 15.6241H77.5446C83.31 15.6241 87.9994 20.3355 87.9994 26.1266V35.3632C87.9994 41.1526 83.31 45.8651 77.5446 45.8651H63.7941C62.5085 45.8651 61.2746 46.4158 60.4113 47.3773L56.6489 51.5776C55.8205 52.5045 54.6731 53 53.4924 53L53.4935 52.9994Z" fill="#F9AF82"/>
<path d="M63.1721 30.9846C63.1721 31.7827 62.5296 32.4282 61.7362 32.4282C60.9428 32.4282 60.2992 31.7827 60.2992 30.9846C60.2992 30.1864 60.9417 29.5415 61.7362 29.5415C62.5307 29.5415 63.1721 30.1881 63.1721 30.9846Z" fill="#F9AF82"/>
<path d="M70.0444 30.9846C70.0444 31.7827 69.4018 32.4282 68.6084 32.4282C67.815 32.4282 67.1714 31.7827 67.1714 30.9846C67.1714 30.1864 67.8139 29.5415 68.6084 29.5415C69.403 29.5415 70.0444 30.1881 70.0444 30.9846Z" fill="#F9AF82"/>
<path d="M76.916 30.9846C76.916 31.7827 76.2713 32.4282 75.479 32.4282C74.6867 32.4282 74.0425 31.7827 74.0425 30.9846C74.0425 30.1864 74.685 29.5415 75.479 29.5415C76.273 29.5415 76.916 30.1881 76.916 30.9846Z" fill="#F9AF82"/>
</g>
<defs>
<clipPath id="clip0_1_310">
<rect width="88" height="53" fill="white"/>
</clipPath>
</defs>
</svg>
